<mxfile host="app.diagrams.net" modified="2023-12-13T07:20:08.493Z" agent="Mozilla/5.0 (Windows NT 10.0; Win64; x64) AppleWebKit/537.36 (KHTML, like Gecko) Chrome/120.0.0.0 Safari/537.36 Edg/120.0.0.0" etag="RXj1cfLVb242kSfydHTO" version="22.1.7" type="device">
  <diagram name="第 1 页" id="2V6nOwJSBCah3CZ2GUio">
    <mxGraphModel dx="3423" dy="1737" grid="1" gridSize="10" guides="1" tooltips="1" connect="1" arrows="1" fold="1" page="1" pageScale="1" pageWidth="827" pageHeight="1169" math="0" shadow="0">
      <root>
        <mxCell id="0" />
        <mxCell id="1" parent="0" />
        <mxCell id="WGRIqP3lwN1IFxU8m7C3-3" style="edgeStyle=orthogonalEdgeStyle;rounded=0;orthogonalLoop=1;jettySize=auto;html=1;exitX=0.5;exitY=1;exitDx=0;exitDy=0;entryX=0.5;entryY=0;entryDx=0;entryDy=0;" parent="1" target="WGRIqP3lwN1IFxU8m7C3-2" edge="1" source="SEgjGOBXU1vm1pJ13EPC-1">
          <mxGeometry relative="1" as="geometry">
            <mxPoint x="380" y="185" as="sourcePoint" />
          </mxGeometry>
        </mxCell>
        <mxCell id="WGRIqP3lwN1IFxU8m7C3-6" style="edgeStyle=orthogonalEdgeStyle;rounded=0;orthogonalLoop=1;jettySize=auto;html=1;exitX=0.5;exitY=1;exitDx=0;exitDy=0;entryX=0.5;entryY=0;entryDx=0;entryDy=0;" parent="1" source="WGRIqP3lwN1IFxU8m7C3-2" target="WGRIqP3lwN1IFxU8m7C3-5" edge="1">
          <mxGeometry relative="1" as="geometry" />
        </mxCell>
        <mxCell id="nAtqvXI4FUErwkFiZ1A1-112" style="edgeStyle=orthogonalEdgeStyle;rounded=0;orthogonalLoop=1;jettySize=auto;html=1;exitX=1;exitY=0.5;exitDx=0;exitDy=0;entryX=0;entryY=0.5;entryDx=0;entryDy=0;" edge="1" parent="1" source="WGRIqP3lwN1IFxU8m7C3-2" target="nAtqvXI4FUErwkFiZ1A1-110">
          <mxGeometry relative="1" as="geometry" />
        </mxCell>
        <mxCell id="WGRIqP3lwN1IFxU8m7C3-2" value="系统初始化&lt;br&gt;system_init()" style="rounded=1;whiteSpace=wrap;html=1;" parent="1" vertex="1">
          <mxGeometry x="320" y="245" width="120" height="60" as="geometry" />
        </mxCell>
        <mxCell id="nAtqvXI4FUErwkFiZ1A1-3" style="edgeStyle=orthogonalEdgeStyle;rounded=0;orthogonalLoop=1;jettySize=auto;html=1;exitX=1;exitY=0.5;exitDx=0;exitDy=0;entryX=0;entryY=0.5;entryDx=0;entryDy=0;" edge="1" parent="1" source="WGRIqP3lwN1IFxU8m7C3-5" target="nAtqvXI4FUErwkFiZ1A1-2">
          <mxGeometry relative="1" as="geometry" />
        </mxCell>
        <mxCell id="WGRIqP3lwN1IFxU8m7C3-5" value="获取到电池状态" style="rounded=1;whiteSpace=wrap;html=1;" parent="1" vertex="1">
          <mxGeometry x="320" y="470" width="120" height="60" as="geometry" />
        </mxCell>
        <mxCell id="WGRIqP3lwN1IFxU8m7C3-9" value="1、读取Flash 0x8000000 + 1024*62 的配置信息&lt;br&gt;2、数据为0xdd 0xee 0xff时从Flash里读取频率配置，输出三角波&lt;br&gt;&amp;nbsp; &amp;nbsp; &amp;nbsp; 数据为0xff 0xff 0xff输出频率固定610KHZ？&lt;br&gt;&lt;span style=&quot;background-color:#ffffff;padding:0px 0px 0px 2px;&quot;&gt;&lt;/span&gt;" style="text;html=1;align=left;verticalAlign=middle;resizable=0;points=[];autosize=1;strokeColor=none;fillColor=none;" parent="1" vertex="1">
          <mxGeometry x="759" y="320" width="370" height="70" as="geometry" />
        </mxCell>
        <mxCell id="WGRIqP3lwN1IFxU8m7C3-15" value="" style="edgeStyle=orthogonalEdgeStyle;rounded=0;orthogonalLoop=1;jettySize=auto;html=1;" parent="1" source="WGRIqP3lwN1IFxU8m7C3-11" target="WGRIqP3lwN1IFxU8m7C3-14" edge="1">
          <mxGeometry relative="1" as="geometry" />
        </mxCell>
        <mxCell id="WGRIqP3lwN1IFxU8m7C3-11" value="向屏幕发送电池状态&lt;br&gt;(50ms执行一次)" style="whiteSpace=wrap;html=1;rounded=1;" parent="1" vertex="1">
          <mxGeometry x="320" y="620" width="120" height="60" as="geometry" />
        </mxCell>
        <mxCell id="WGRIqP3lwN1IFxU8m7C3-13" value="像屏幕循环发送14字节数据，第3个字节代表充放电，第7字节代表电池水平。&lt;br&gt;&lt;span style=&quot;background-color:#ffffff;padding:0px 0px 0px 2px;&quot;&gt;&lt;/span&gt;" style="text;html=1;align=left;verticalAlign=middle;resizable=0;points=[];autosize=1;strokeColor=none;fillColor=none;" parent="1" vertex="1">
          <mxGeometry x="441" y="637" width="430" height="40" as="geometry" />
        </mxCell>
        <mxCell id="nAtqvXI4FUErwkFiZ1A1-17" style="edgeStyle=orthogonalEdgeStyle;rounded=0;orthogonalLoop=1;jettySize=auto;html=1;exitX=1;exitY=0.5;exitDx=0;exitDy=0;entryX=0;entryY=0.5;entryDx=0;entryDy=0;" edge="1" parent="1" source="WGRIqP3lwN1IFxU8m7C3-14" target="nAtqvXI4FUErwkFiZ1A1-23">
          <mxGeometry relative="1" as="geometry">
            <mxPoint x="530" y="690" as="targetPoint" />
          </mxGeometry>
        </mxCell>
        <mxCell id="nAtqvXI4FUErwkFiZ1A1-20" value="16字节" style="edgeLabel;html=1;align=center;verticalAlign=middle;resizable=0;points=[];" vertex="1" connectable="0" parent="nAtqvXI4FUErwkFiZ1A1-17">
          <mxGeometry x="0.1255" y="-1" relative="1" as="geometry">
            <mxPoint as="offset" />
          </mxGeometry>
        </mxCell>
        <mxCell id="nAtqvXI4FUErwkFiZ1A1-24" style="edgeStyle=orthogonalEdgeStyle;rounded=0;orthogonalLoop=1;jettySize=auto;html=1;exitX=1;exitY=0.5;exitDx=0;exitDy=0;entryX=0;entryY=0.5;entryDx=0;entryDy=0;" edge="1" parent="1" source="WGRIqP3lwN1IFxU8m7C3-14" target="nAtqvXI4FUErwkFiZ1A1-21">
          <mxGeometry relative="1" as="geometry" />
        </mxCell>
        <mxCell id="nAtqvXI4FUErwkFiZ1A1-46" value="30字节" style="edgeLabel;html=1;align=center;verticalAlign=middle;resizable=0;points=[];" vertex="1" connectable="0" parent="nAtqvXI4FUErwkFiZ1A1-24">
          <mxGeometry x="0.5899" y="-1" relative="1" as="geometry">
            <mxPoint as="offset" />
          </mxGeometry>
        </mxCell>
        <mxCell id="nAtqvXI4FUErwkFiZ1A1-34" style="edgeStyle=orthogonalEdgeStyle;rounded=0;orthogonalLoop=1;jettySize=auto;html=1;exitX=1;exitY=0.5;exitDx=0;exitDy=0;entryX=0;entryY=0.25;entryDx=0;entryDy=0;" edge="1" parent="1" source="WGRIqP3lwN1IFxU8m7C3-14" target="nAtqvXI4FUErwkFiZ1A1-28">
          <mxGeometry relative="1" as="geometry" />
        </mxCell>
        <mxCell id="nAtqvXI4FUErwkFiZ1A1-48" value="30字节" style="edgeLabel;html=1;align=center;verticalAlign=middle;resizable=0;points=[];" vertex="1" connectable="0" parent="nAtqvXI4FUErwkFiZ1A1-34">
          <mxGeometry x="0.6415" y="-1" relative="1" as="geometry">
            <mxPoint x="1" as="offset" />
          </mxGeometry>
        </mxCell>
        <mxCell id="nAtqvXI4FUErwkFiZ1A1-35" style="edgeStyle=orthogonalEdgeStyle;rounded=0;orthogonalLoop=1;jettySize=auto;html=1;exitX=1;exitY=0.5;exitDx=0;exitDy=0;entryX=0;entryY=0.5;entryDx=0;entryDy=0;" edge="1" parent="1" source="WGRIqP3lwN1IFxU8m7C3-14" target="nAtqvXI4FUErwkFiZ1A1-29">
          <mxGeometry relative="1" as="geometry" />
        </mxCell>
        <mxCell id="nAtqvXI4FUErwkFiZ1A1-49" value="30字节" style="edgeLabel;html=1;align=center;verticalAlign=middle;resizable=0;points=[];" vertex="1" connectable="0" parent="nAtqvXI4FUErwkFiZ1A1-35">
          <mxGeometry x="0.6987" y="1" relative="1" as="geometry">
            <mxPoint as="offset" />
          </mxGeometry>
        </mxCell>
        <mxCell id="nAtqvXI4FUErwkFiZ1A1-36" style="edgeStyle=orthogonalEdgeStyle;rounded=0;orthogonalLoop=1;jettySize=auto;html=1;exitX=1;exitY=0.5;exitDx=0;exitDy=0;entryX=0;entryY=0.5;entryDx=0;entryDy=0;" edge="1" parent="1" source="WGRIqP3lwN1IFxU8m7C3-14" target="nAtqvXI4FUErwkFiZ1A1-33">
          <mxGeometry relative="1" as="geometry" />
        </mxCell>
        <mxCell id="nAtqvXI4FUErwkFiZ1A1-50" value="30字节" style="edgeLabel;html=1;align=center;verticalAlign=middle;resizable=0;points=[];" vertex="1" connectable="0" parent="nAtqvXI4FUErwkFiZ1A1-36">
          <mxGeometry x="0.7536" y="2" relative="1" as="geometry">
            <mxPoint as="offset" />
          </mxGeometry>
        </mxCell>
        <mxCell id="nAtqvXI4FUErwkFiZ1A1-43" style="edgeStyle=orthogonalEdgeStyle;rounded=0;orthogonalLoop=1;jettySize=auto;html=1;exitX=1;exitY=0.5;exitDx=0;exitDy=0;entryX=0;entryY=0.5;entryDx=0;entryDy=0;" edge="1" parent="1" source="WGRIqP3lwN1IFxU8m7C3-14" target="nAtqvXI4FUErwkFiZ1A1-45">
          <mxGeometry relative="1" as="geometry">
            <mxPoint x="500" y="980" as="targetPoint" />
          </mxGeometry>
        </mxCell>
        <mxCell id="nAtqvXI4FUErwkFiZ1A1-53" value="14字节" style="edgeLabel;html=1;align=center;verticalAlign=middle;resizable=0;points=[];" vertex="1" connectable="0" parent="nAtqvXI4FUErwkFiZ1A1-43">
          <mxGeometry x="0.7991" y="-1" relative="1" as="geometry">
            <mxPoint as="offset" />
          </mxGeometry>
        </mxCell>
        <mxCell id="nAtqvXI4FUErwkFiZ1A1-56" style="edgeStyle=orthogonalEdgeStyle;rounded=0;orthogonalLoop=1;jettySize=auto;html=1;exitX=1;exitY=0.5;exitDx=0;exitDy=0;entryX=0;entryY=0.5;entryDx=0;entryDy=0;" edge="1" parent="1" source="WGRIqP3lwN1IFxU8m7C3-14" target="nAtqvXI4FUErwkFiZ1A1-54">
          <mxGeometry relative="1" as="geometry" />
        </mxCell>
        <mxCell id="nAtqvXI4FUErwkFiZ1A1-58" value="14字节" style="edgeLabel;html=1;align=center;verticalAlign=middle;resizable=0;points=[];" vertex="1" connectable="0" parent="nAtqvXI4FUErwkFiZ1A1-56">
          <mxGeometry x="0.8197" y="-2" relative="1" as="geometry">
            <mxPoint as="offset" />
          </mxGeometry>
        </mxCell>
        <mxCell id="nAtqvXI4FUErwkFiZ1A1-57" style="edgeStyle=orthogonalEdgeStyle;rounded=0;orthogonalLoop=1;jettySize=auto;html=1;exitX=1;exitY=0.5;exitDx=0;exitDy=0;entryX=0;entryY=0.5;entryDx=0;entryDy=0;" edge="1" parent="1" source="WGRIqP3lwN1IFxU8m7C3-14" target="nAtqvXI4FUErwkFiZ1A1-55">
          <mxGeometry relative="1" as="geometry" />
        </mxCell>
        <mxCell id="nAtqvXI4FUErwkFiZ1A1-59" value="14zijie" style="edgeLabel;html=1;align=center;verticalAlign=middle;resizable=0;points=[];" vertex="1" connectable="0" parent="nAtqvXI4FUErwkFiZ1A1-57">
          <mxGeometry x="0.8355" y="1" relative="1" as="geometry">
            <mxPoint as="offset" />
          </mxGeometry>
        </mxCell>
        <mxCell id="WGRIqP3lwN1IFxU8m7C3-14" value="获取屏幕指令" style="whiteSpace=wrap;html=1;rounded=1;" parent="1" vertex="1">
          <mxGeometry x="320" y="730" width="120" height="60" as="geometry" />
        </mxCell>
        <mxCell id="WGRIqP3lwN1IFxU8m7C3-21" style="edgeStyle=orthogonalEdgeStyle;rounded=0;orthogonalLoop=1;jettySize=auto;html=1;exitX=0;exitY=0.5;exitDx=0;exitDy=0;entryX=0;entryY=0.5;entryDx=0;entryDy=0;" parent="1" source="WGRIqP3lwN1IFxU8m7C3-19" target="WGRIqP3lwN1IFxU8m7C3-5" edge="1">
          <mxGeometry relative="1" as="geometry">
            <Array as="points">
              <mxPoint x="210" y="1220" />
              <mxPoint x="210" y="500" />
            </Array>
          </mxGeometry>
        </mxCell>
        <mxCell id="nAtqvXI4FUErwkFiZ1A1-63" style="edgeStyle=orthogonalEdgeStyle;rounded=0;orthogonalLoop=1;jettySize=auto;html=1;exitX=1;exitY=0.5;exitDx=0;exitDy=0;" edge="1" parent="1" source="WGRIqP3lwN1IFxU8m7C3-19">
          <mxGeometry relative="1" as="geometry">
            <mxPoint x="510" y="1219.7777777777778" as="targetPoint" />
          </mxGeometry>
        </mxCell>
        <mxCell id="WGRIqP3lwN1IFxU8m7C3-19" value="四种工作模式" style="whiteSpace=wrap;html=1;rounded=1;" parent="1" vertex="1">
          <mxGeometry x="330" y="1190" width="120" height="60" as="geometry" />
        </mxCell>
        <mxCell id="xTIxTCWqg3Ljxt3UIlR9-1" value="5V转12V开始工作，其他不工作" style="text;html=1;align=center;verticalAlign=middle;resizable=0;points=[];autosize=1;strokeColor=none;fillColor=none;fontSize=12;" parent="1" vertex="1">
          <mxGeometry x="440" y="145" width="190" height="30" as="geometry" />
        </mxCell>
        <mxCell id="SEgjGOBXU1vm1pJ13EPC-1" value="上电初始化IO口&lt;br&gt;" style="rounded=1;whiteSpace=wrap;html=1;" parent="1" vertex="1">
          <mxGeometry x="320" y="130" width="120" height="60" as="geometry" />
        </mxCell>
        <mxCell id="nAtqvXI4FUErwkFiZ1A1-6" style="edgeStyle=orthogonalEdgeStyle;rounded=0;orthogonalLoop=1;jettySize=auto;html=1;exitX=1;exitY=0.5;exitDx=0;exitDy=0;" edge="1" parent="1" source="nAtqvXI4FUErwkFiZ1A1-2">
          <mxGeometry relative="1" as="geometry">
            <mxPoint x="610" y="500" as="targetPoint" />
          </mxGeometry>
        </mxCell>
        <mxCell id="nAtqvXI4FUErwkFiZ1A1-7" value="是" style="edgeLabel;html=1;align=center;verticalAlign=middle;resizable=0;points=[];" vertex="1" connectable="0" parent="nAtqvXI4FUErwkFiZ1A1-6">
          <mxGeometry x="-0.1226" y="9" relative="1" as="geometry">
            <mxPoint as="offset" />
          </mxGeometry>
        </mxCell>
        <mxCell id="nAtqvXI4FUErwkFiZ1A1-12" style="edgeStyle=orthogonalEdgeStyle;rounded=0;orthogonalLoop=1;jettySize=auto;html=1;exitX=0.5;exitY=1;exitDx=0;exitDy=0;entryX=0.5;entryY=0;entryDx=0;entryDy=0;" edge="1" parent="1" source="nAtqvXI4FUErwkFiZ1A1-2" target="nAtqvXI4FUErwkFiZ1A1-13">
          <mxGeometry relative="1" as="geometry">
            <mxPoint x="515.5555555555557" y="570" as="targetPoint" />
          </mxGeometry>
        </mxCell>
        <mxCell id="nAtqvXI4FUErwkFiZ1A1-14" value="否" style="edgeLabel;html=1;align=center;verticalAlign=middle;resizable=0;points=[];" vertex="1" connectable="0" parent="nAtqvXI4FUErwkFiZ1A1-12">
          <mxGeometry x="-0.1933" relative="1" as="geometry">
            <mxPoint as="offset" />
          </mxGeometry>
        </mxCell>
        <mxCell id="nAtqvXI4FUErwkFiZ1A1-2" value="连续8次电压结果是否相同" style="rounded=1;whiteSpace=wrap;html=1;" vertex="1" parent="1">
          <mxGeometry x="470" y="485" width="90" height="30" as="geometry" />
        </mxCell>
        <mxCell id="nAtqvXI4FUErwkFiZ1A1-9" style="edgeStyle=orthogonalEdgeStyle;rounded=0;orthogonalLoop=1;jettySize=auto;html=1;exitX=1;exitY=0.5;exitDx=0;exitDy=0;" edge="1" parent="1" source="nAtqvXI4FUErwkFiZ1A1-8" target="nAtqvXI4FUErwkFiZ1A1-10">
          <mxGeometry relative="1" as="geometry">
            <mxPoint x="750" y="499.7777777777778" as="targetPoint" />
          </mxGeometry>
        </mxCell>
        <mxCell id="nAtqvXI4FUErwkFiZ1A1-15" style="edgeStyle=orthogonalEdgeStyle;rounded=0;orthogonalLoop=1;jettySize=auto;html=1;entryX=1;entryY=0.75;entryDx=0;entryDy=0;" edge="1" parent="1" source="nAtqvXI4FUErwkFiZ1A1-8" target="nAtqvXI4FUErwkFiZ1A1-13">
          <mxGeometry relative="1" as="geometry">
            <Array as="points">
              <mxPoint x="650" y="593" />
            </Array>
          </mxGeometry>
        </mxCell>
        <mxCell id="nAtqvXI4FUErwkFiZ1A1-8" value="判断电池电量等级" style="rounded=1;whiteSpace=wrap;html=1;" vertex="1" parent="1">
          <mxGeometry x="610" y="485" width="80" height="30" as="geometry" />
        </mxCell>
        <mxCell id="nAtqvXI4FUErwkFiZ1A1-10" value="0x00:充电状态下的一格电&lt;br&gt;0x10:充电状态下的两格电&lt;br&gt;0x20:充电状态下的三格电&lt;br&gt;0x30:充电状态下的四格电&lt;br&gt;0x70:充电状态下的五格电&lt;br&gt;0xAA:放电状态下的一格电&lt;br&gt;0x80:放电状态下的两格电&lt;br&gt;0x90:放电状态下的三格电&lt;br&gt;0xA0:放电状态下的四格电&lt;br&gt;0xB0:放电状态下的五格电" style="whiteSpace=wrap;html=1;aspect=fixed;" vertex="1" parent="1">
          <mxGeometry x="770" y="417.5" width="165" height="165" as="geometry" />
        </mxCell>
        <mxCell id="nAtqvXI4FUErwkFiZ1A1-16" style="edgeStyle=orthogonalEdgeStyle;rounded=0;orthogonalLoop=1;jettySize=auto;html=1;exitX=0;exitY=0.5;exitDx=0;exitDy=0;entryX=0.5;entryY=0;entryDx=0;entryDy=0;" edge="1" parent="1" source="nAtqvXI4FUErwkFiZ1A1-13" target="WGRIqP3lwN1IFxU8m7C3-11">
          <mxGeometry relative="1" as="geometry" />
        </mxCell>
        <mxCell id="nAtqvXI4FUErwkFiZ1A1-13" value="获取到的电压等级进行存储" style="rounded=1;whiteSpace=wrap;html=1;" vertex="1" parent="1">
          <mxGeometry x="475" y="570" width="80" height="30" as="geometry" />
        </mxCell>
        <mxCell id="nAtqvXI4FUErwkFiZ1A1-25" style="edgeStyle=orthogonalEdgeStyle;rounded=0;orthogonalLoop=1;jettySize=auto;html=1;exitX=1;exitY=0.5;exitDx=0;exitDy=0;" edge="1" parent="1" source="nAtqvXI4FUErwkFiZ1A1-21">
          <mxGeometry relative="1" as="geometry">
            <mxPoint x="670" y="785.3333333333333" as="targetPoint" />
          </mxGeometry>
        </mxCell>
        <mxCell id="nAtqvXI4FUErwkFiZ1A1-21" value="启动指令" style="whiteSpace=wrap;html=1;rounded=1;" vertex="1" parent="1">
          <mxGeometry x="555" y="770" width="75" height="30" as="geometry" />
        </mxCell>
        <mxCell id="nAtqvXI4FUErwkFiZ1A1-23" value="停止指令" style="whiteSpace=wrap;html=1;rounded=1;" vertex="1" parent="1">
          <mxGeometry x="555" y="670" width="65" height="40" as="geometry" />
        </mxCell>
        <mxCell id="nAtqvXI4FUErwkFiZ1A1-27" value="PA8持续输出低电平保证不会因为软件关机" style="whiteSpace=wrap;html=1;rounded=1;" vertex="1" parent="1">
          <mxGeometry x="670" y="770" width="75" height="30" as="geometry" />
        </mxCell>
        <mxCell id="nAtqvXI4FUErwkFiZ1A1-28" value="停止指令" style="whiteSpace=wrap;html=1;rounded=1;" vertex="1" parent="1">
          <mxGeometry x="555" y="810" width="75" height="30" as="geometry" />
        </mxCell>
        <mxCell id="nAtqvXI4FUErwkFiZ1A1-29" value="暂停指令" style="whiteSpace=wrap;html=1;rounded=1;" vertex="1" parent="1">
          <mxGeometry x="555" y="850" width="75" height="30" as="geometry" />
        </mxCell>
        <mxCell id="nAtqvXI4FUErwkFiZ1A1-39" value="" style="edgeStyle=orthogonalEdgeStyle;rounded=0;orthogonalLoop=1;jettySize=auto;html=1;" edge="1" parent="1" source="nAtqvXI4FUErwkFiZ1A1-33" target="nAtqvXI4FUErwkFiZ1A1-38">
          <mxGeometry relative="1" as="geometry">
            <Array as="points">
              <mxPoint x="670" y="905" />
              <mxPoint x="670" y="905" />
            </Array>
          </mxGeometry>
        </mxCell>
        <mxCell id="nAtqvXI4FUErwkFiZ1A1-33" value="修改超声参数" style="whiteSpace=wrap;html=1;rounded=1;" vertex="1" parent="1">
          <mxGeometry x="555" y="890" width="75" height="30" as="geometry" />
        </mxCell>
        <mxCell id="nAtqvXI4FUErwkFiZ1A1-40" style="edgeStyle=orthogonalEdgeStyle;rounded=0;orthogonalLoop=1;jettySize=auto;html=1;exitX=1;exitY=0.5;exitDx=0;exitDy=0;" edge="1" parent="1" source="nAtqvXI4FUErwkFiZ1A1-38">
          <mxGeometry relative="1" as="geometry">
            <mxPoint x="800" y="905" as="targetPoint" />
          </mxGeometry>
        </mxCell>
        <mxCell id="nAtqvXI4FUErwkFiZ1A1-41" value="是" style="edgeLabel;html=1;align=center;verticalAlign=middle;resizable=0;points=[];" vertex="1" connectable="0" parent="nAtqvXI4FUErwkFiZ1A1-40">
          <mxGeometry x="-0.2684" y="1" relative="1" as="geometry">
            <mxPoint as="offset" />
          </mxGeometry>
        </mxCell>
        <mxCell id="nAtqvXI4FUErwkFiZ1A1-38" value="存到Fash并读取并判断两个数据是否相同" style="whiteSpace=wrap;html=1;rounded=1;" vertex="1" parent="1">
          <mxGeometry x="670" y="890" width="75" height="30" as="geometry" />
        </mxCell>
        <mxCell id="nAtqvXI4FUErwkFiZ1A1-42" value="通知屏幕参数保存成功" style="rounded=1;whiteSpace=wrap;html=1;" vertex="1" parent="1">
          <mxGeometry x="800" y="891" width="70" height="30" as="geometry" />
        </mxCell>
        <mxCell id="nAtqvXI4FUErwkFiZ1A1-45" value="暂停键置1 并相应屏幕" style="whiteSpace=wrap;html=1;rounded=1;" vertex="1" parent="1">
          <mxGeometry x="555" y="960" width="75" height="30" as="geometry" />
        </mxCell>
        <mxCell id="nAtqvXI4FUErwkFiZ1A1-54" value="退出管理员界面" style="whiteSpace=wrap;html=1;rounded=1;" vertex="1" parent="1">
          <mxGeometry x="555" y="1010" width="75" height="30" as="geometry" />
        </mxCell>
        <mxCell id="nAtqvXI4FUErwkFiZ1A1-55" value="修改PWM占空比" style="whiteSpace=wrap;html=1;rounded=1;" vertex="1" parent="1">
          <mxGeometry x="555" y="1060" width="75" height="30" as="geometry" />
        </mxCell>
        <mxCell id="nAtqvXI4FUErwkFiZ1A1-60" value="" style="shape=curlyBracket;whiteSpace=wrap;html=1;rounded=1;flipH=1;labelPosition=right;verticalLabelPosition=middle;align=left;verticalAlign=middle;rotation=90;size=0.5;" vertex="1" parent="1">
          <mxGeometry x="680" y="930" width="20" height="380" as="geometry" />
        </mxCell>
        <mxCell id="nAtqvXI4FUErwkFiZ1A1-62" style="edgeStyle=orthogonalEdgeStyle;rounded=0;orthogonalLoop=1;jettySize=auto;html=1;exitX=0.5;exitY=1;exitDx=0;exitDy=0;entryX=0.416;entryY=0.046;entryDx=0;entryDy=0;entryPerimeter=0;" edge="1" parent="1" source="WGRIqP3lwN1IFxU8m7C3-14" target="WGRIqP3lwN1IFxU8m7C3-19">
          <mxGeometry relative="1" as="geometry" />
        </mxCell>
        <mxCell id="nAtqvXI4FUErwkFiZ1A1-64" style="edgeStyle=orthogonalEdgeStyle;rounded=0;orthogonalLoop=1;jettySize=auto;html=1;exitX=1;exitY=0.5;exitDx=0;exitDy=0;entryX=0;entryY=0.5;entryDx=0;entryDy=0;" edge="1" source="nAtqvXI4FUErwkFiZ1A1-65" parent="1" target="nAtqvXI4FUErwkFiZ1A1-70">
          <mxGeometry relative="1" as="geometry">
            <mxPoint x="650" y="1220" as="targetPoint" />
          </mxGeometry>
        </mxCell>
        <mxCell id="nAtqvXI4FUErwkFiZ1A1-69" value="是" style="edgeLabel;html=1;align=center;verticalAlign=middle;resizable=0;points=[];" vertex="1" connectable="0" parent="nAtqvXI4FUErwkFiZ1A1-64">
          <mxGeometry x="-0.2699" y="-2" relative="1" as="geometry">
            <mxPoint x="-12" y="7" as="offset" />
          </mxGeometry>
        </mxCell>
        <mxCell id="nAtqvXI4FUErwkFiZ1A1-77" style="edgeStyle=orthogonalEdgeStyle;rounded=0;orthogonalLoop=1;jettySize=auto;html=1;exitX=1;exitY=0.5;exitDx=0;exitDy=0;entryX=0;entryY=0.5;entryDx=0;entryDy=0;" edge="1" parent="1" source="nAtqvXI4FUErwkFiZ1A1-65" target="nAtqvXI4FUErwkFiZ1A1-76">
          <mxGeometry relative="1" as="geometry" />
        </mxCell>
        <mxCell id="nAtqvXI4FUErwkFiZ1A1-83" value="" style="edgeStyle=orthogonalEdgeStyle;rounded=0;orthogonalLoop=1;jettySize=auto;html=1;" edge="1" parent="1" source="nAtqvXI4FUErwkFiZ1A1-65">
          <mxGeometry relative="1" as="geometry">
            <mxPoint x="550" y="1330" as="targetPoint" />
          </mxGeometry>
        </mxCell>
        <mxCell id="nAtqvXI4FUErwkFiZ1A1-84" value="否" style="edgeLabel;html=1;align=center;verticalAlign=middle;resizable=0;points=[];" vertex="1" connectable="0" parent="nAtqvXI4FUErwkFiZ1A1-83">
          <mxGeometry x="-0.5796" y="2" relative="1" as="geometry">
            <mxPoint as="offset" />
          </mxGeometry>
        </mxCell>
        <mxCell id="nAtqvXI4FUErwkFiZ1A1-65" value="判断是否拿到电量信息" style="whiteSpace=wrap;html=1;rounded=1;" vertex="1" parent="1">
          <mxGeometry x="510" y="1190" width="80" height="60" as="geometry" />
        </mxCell>
        <mxCell id="nAtqvXI4FUErwkFiZ1A1-85" style="edgeStyle=orthogonalEdgeStyle;rounded=0;orthogonalLoop=1;jettySize=auto;html=1;exitX=1;exitY=0.5;exitDx=0;exitDy=0;" edge="1" parent="1" source="nAtqvXI4FUErwkFiZ1A1-70">
          <mxGeometry relative="1" as="geometry">
            <mxPoint x="550" y="1330" as="targetPoint" />
            <Array as="points">
              <mxPoint x="770" y="1180" />
              <mxPoint x="770" y="1310" />
              <mxPoint x="551" y="1310" />
              <mxPoint x="551" y="1320" />
            </Array>
          </mxGeometry>
        </mxCell>
        <mxCell id="nAtqvXI4FUErwkFiZ1A1-70" value="充电状态" style="whiteSpace=wrap;html=1;rounded=1;" vertex="1" parent="1">
          <mxGeometry x="650" y="1160" width="70" height="40" as="geometry" />
        </mxCell>
        <mxCell id="nAtqvXI4FUErwkFiZ1A1-126" style="edgeStyle=orthogonalEdgeStyle;rounded=0;orthogonalLoop=1;jettySize=auto;html=1;exitX=1;exitY=0.5;exitDx=0;exitDy=0;" edge="1" parent="1" source="nAtqvXI4FUErwkFiZ1A1-76" target="nAtqvXI4FUErwkFiZ1A1-87">
          <mxGeometry relative="1" as="geometry">
            <Array as="points">
              <mxPoint x="750" y="1245" />
              <mxPoint x="750" y="1310" />
              <mxPoint x="550" y="1310" />
            </Array>
          </mxGeometry>
        </mxCell>
        <mxCell id="nAtqvXI4FUErwkFiZ1A1-76" value="放电状态，电压小于254关机" style="whiteSpace=wrap;html=1;rounded=1;" vertex="1" parent="1">
          <mxGeometry x="650" y="1220" width="80" height="50" as="geometry" />
        </mxCell>
        <mxCell id="nAtqvXI4FUErwkFiZ1A1-103" style="edgeStyle=orthogonalEdgeStyle;rounded=0;orthogonalLoop=1;jettySize=auto;html=1;exitX=0.5;exitY=1;exitDx=0;exitDy=0;" edge="1" parent="1" source="nAtqvXI4FUErwkFiZ1A1-87" target="nAtqvXI4FUErwkFiZ1A1-90">
          <mxGeometry relative="1" as="geometry" />
        </mxCell>
        <mxCell id="nAtqvXI4FUErwkFiZ1A1-104" style="edgeStyle=orthogonalEdgeStyle;rounded=0;orthogonalLoop=1;jettySize=auto;html=1;exitX=0.5;exitY=1;exitDx=0;exitDy=0;" edge="1" parent="1" source="nAtqvXI4FUErwkFiZ1A1-87" target="nAtqvXI4FUErwkFiZ1A1-91">
          <mxGeometry relative="1" as="geometry" />
        </mxCell>
        <mxCell id="nAtqvXI4FUErwkFiZ1A1-105" style="edgeStyle=orthogonalEdgeStyle;rounded=0;orthogonalLoop=1;jettySize=auto;html=1;exitX=0.5;exitY=1;exitDx=0;exitDy=0;entryX=0.5;entryY=0;entryDx=0;entryDy=0;" edge="1" parent="1" source="nAtqvXI4FUErwkFiZ1A1-87" target="nAtqvXI4FUErwkFiZ1A1-92">
          <mxGeometry relative="1" as="geometry" />
        </mxCell>
        <mxCell id="nAtqvXI4FUErwkFiZ1A1-106" style="edgeStyle=orthogonalEdgeStyle;rounded=0;orthogonalLoop=1;jettySize=auto;html=1;exitX=0.5;exitY=1;exitDx=0;exitDy=0;entryX=0.5;entryY=0;entryDx=0;entryDy=0;" edge="1" parent="1" source="nAtqvXI4FUErwkFiZ1A1-87" target="nAtqvXI4FUErwkFiZ1A1-89">
          <mxGeometry relative="1" as="geometry" />
        </mxCell>
        <mxCell id="nAtqvXI4FUErwkFiZ1A1-107" style="edgeStyle=orthogonalEdgeStyle;rounded=0;orthogonalLoop=1;jettySize=auto;html=1;exitX=0.5;exitY=1;exitDx=0;exitDy=0;" edge="1" parent="1" source="nAtqvXI4FUErwkFiZ1A1-87" target="nAtqvXI4FUErwkFiZ1A1-88">
          <mxGeometry relative="1" as="geometry" />
        </mxCell>
        <mxCell id="nAtqvXI4FUErwkFiZ1A1-87" value="超声工作状态" style="whiteSpace=wrap;html=1;rounded=1;" vertex="1" parent="1">
          <mxGeometry x="490" y="1330" width="120" height="30" as="geometry" />
        </mxCell>
        <mxCell id="nAtqvXI4FUErwkFiZ1A1-94" value="" style="edgeStyle=orthogonalEdgeStyle;rounded=0;orthogonalLoop=1;jettySize=auto;html=1;" edge="1" parent="1" source="nAtqvXI4FUErwkFiZ1A1-88" target="nAtqvXI4FUErwkFiZ1A1-93">
          <mxGeometry relative="1" as="geometry" />
        </mxCell>
        <mxCell id="nAtqvXI4FUErwkFiZ1A1-88" value="充电状态" style="whiteSpace=wrap;html=1;rounded=1;arcSize=23;" vertex="1" parent="1">
          <mxGeometry x="245.5" y="1420" width="90" height="40" as="geometry" />
        </mxCell>
        <mxCell id="nAtqvXI4FUErwkFiZ1A1-95" style="edgeStyle=orthogonalEdgeStyle;rounded=0;orthogonalLoop=1;jettySize=auto;html=1;exitX=0.5;exitY=1;exitDx=0;exitDy=0;" edge="1" parent="1" source="nAtqvXI4FUErwkFiZ1A1-89">
          <mxGeometry relative="1" as="geometry">
            <mxPoint x="420.7222222222222" y="1510" as="targetPoint" />
          </mxGeometry>
        </mxCell>
        <mxCell id="nAtqvXI4FUErwkFiZ1A1-89" value="停止状态" style="whiteSpace=wrap;html=1;rounded=1;arcSize=23;" vertex="1" parent="1">
          <mxGeometry x="375.5" y="1420" width="90" height="40" as="geometry" />
        </mxCell>
        <mxCell id="nAtqvXI4FUErwkFiZ1A1-101" style="edgeStyle=orthogonalEdgeStyle;rounded=0;orthogonalLoop=1;jettySize=auto;html=1;exitX=0.5;exitY=1;exitDx=0;exitDy=0;entryX=0.5;entryY=0;entryDx=0;entryDy=0;" edge="1" parent="1" source="nAtqvXI4FUErwkFiZ1A1-90" target="nAtqvXI4FUErwkFiZ1A1-97">
          <mxGeometry relative="1" as="geometry" />
        </mxCell>
        <mxCell id="nAtqvXI4FUErwkFiZ1A1-90" value="继续状态" style="whiteSpace=wrap;html=1;rounded=1;arcSize=23;" vertex="1" parent="1">
          <mxGeometry x="505.5" y="1420" width="90" height="40" as="geometry" />
        </mxCell>
        <mxCell id="nAtqvXI4FUErwkFiZ1A1-102" style="edgeStyle=orthogonalEdgeStyle;rounded=0;orthogonalLoop=1;jettySize=auto;html=1;exitX=0.5;exitY=1;exitDx=0;exitDy=0;entryX=0.5;entryY=0;entryDx=0;entryDy=0;" edge="1" parent="1" source="nAtqvXI4FUErwkFiZ1A1-91" target="nAtqvXI4FUErwkFiZ1A1-98">
          <mxGeometry relative="1" as="geometry" />
        </mxCell>
        <mxCell id="nAtqvXI4FUErwkFiZ1A1-91" value="工作" style="whiteSpace=wrap;html=1;rounded=1;arcSize=23;" vertex="1" parent="1">
          <mxGeometry x="640.5" y="1420" width="60" height="40" as="geometry" />
        </mxCell>
        <mxCell id="nAtqvXI4FUErwkFiZ1A1-100" value="" style="edgeStyle=orthogonalEdgeStyle;rounded=0;orthogonalLoop=1;jettySize=auto;html=1;" edge="1" parent="1" source="nAtqvXI4FUErwkFiZ1A1-92" target="nAtqvXI4FUErwkFiZ1A1-99">
          <mxGeometry relative="1" as="geometry" />
        </mxCell>
        <mxCell id="nAtqvXI4FUErwkFiZ1A1-92" value="关机" style="whiteSpace=wrap;html=1;rounded=1;arcSize=23;" vertex="1" parent="1">
          <mxGeometry x="759" y="1420" width="60" height="40" as="geometry" />
        </mxCell>
        <mxCell id="nAtqvXI4FUErwkFiZ1A1-93" value="重新初始化IO口，保持不工作状态" style="whiteSpace=wrap;html=1;rounded=1;arcSize=23;" vertex="1" parent="1">
          <mxGeometry x="238" y="1510" width="105" height="50" as="geometry" />
        </mxCell>
        <mxCell id="nAtqvXI4FUErwkFiZ1A1-96" value="TIM3的PWM停止输出，此状态持续30S关机" style="whiteSpace=wrap;html=1;rounded=1;arcSize=23;" vertex="1" parent="1">
          <mxGeometry x="370.5" y="1510" width="105" height="60" as="geometry" />
        </mxCell>
        <mxCell id="nAtqvXI4FUErwkFiZ1A1-97" value="TIM3的PWM停止输出，此状态不会导致关机" style="whiteSpace=wrap;html=1;rounded=1;arcSize=23;" vertex="1" parent="1">
          <mxGeometry x="498" y="1510" width="105" height="60" as="geometry" />
        </mxCell>
        <mxCell id="nAtqvXI4FUErwkFiZ1A1-98" value="电压转换芯片开始工作，PWM输出4%占空比" style="whiteSpace=wrap;html=1;rounded=1;arcSize=23;" vertex="1" parent="1">
          <mxGeometry x="618" y="1510" width="105" height="60" as="geometry" />
        </mxCell>
        <mxCell id="nAtqvXI4FUErwkFiZ1A1-99" value="PA8输出高电平关机" style="whiteSpace=wrap;html=1;rounded=1;arcSize=23;" vertex="1" parent="1">
          <mxGeometry x="759" y="1510" width="60" height="40" as="geometry" />
        </mxCell>
        <mxCell id="nAtqvXI4FUErwkFiZ1A1-114" value="" style="edgeStyle=orthogonalEdgeStyle;rounded=0;orthogonalLoop=1;jettySize=auto;html=1;" edge="1" parent="1" source="nAtqvXI4FUErwkFiZ1A1-110" target="nAtqvXI4FUErwkFiZ1A1-113">
          <mxGeometry relative="1" as="geometry" />
        </mxCell>
        <mxCell id="nAtqvXI4FUErwkFiZ1A1-110" value="初始化IO" style="rounded=1;whiteSpace=wrap;html=1;" vertex="1" parent="1">
          <mxGeometry x="465.5" y="245" width="64.5" height="60" as="geometry" />
        </mxCell>
        <mxCell id="nAtqvXI4FUErwkFiZ1A1-116" value="" style="edgeStyle=orthogonalEdgeStyle;rounded=0;orthogonalLoop=1;jettySize=auto;html=1;" edge="1" parent="1" source="nAtqvXI4FUErwkFiZ1A1-113" target="nAtqvXI4FUErwkFiZ1A1-115">
          <mxGeometry relative="1" as="geometry" />
        </mxCell>
        <mxCell id="nAtqvXI4FUErwkFiZ1A1-113" value="初始化两个AD9833芯片" style="whiteSpace=wrap;html=1;rounded=1;" vertex="1" parent="1">
          <mxGeometry x="552.5" y="247.5" width="70" height="55" as="geometry" />
        </mxCell>
        <mxCell id="nAtqvXI4FUErwkFiZ1A1-118" value="" style="edgeStyle=orthogonalEdgeStyle;rounded=0;orthogonalLoop=1;jettySize=auto;html=1;" edge="1" parent="1" source="nAtqvXI4FUErwkFiZ1A1-115" target="nAtqvXI4FUErwkFiZ1A1-117">
          <mxGeometry relative="1" as="geometry" />
        </mxCell>
        <mxCell id="nAtqvXI4FUErwkFiZ1A1-119" value="满足" style="edgeLabel;html=1;align=center;verticalAlign=middle;resizable=0;points=[];" vertex="1" connectable="0" parent="nAtqvXI4FUErwkFiZ1A1-118">
          <mxGeometry x="-0.1322" y="-1" relative="1" as="geometry">
            <mxPoint as="offset" />
          </mxGeometry>
        </mxCell>
        <mxCell id="nAtqvXI4FUErwkFiZ1A1-120" style="edgeStyle=orthogonalEdgeStyle;rounded=0;orthogonalLoop=1;jettySize=auto;html=1;exitX=0.5;exitY=1;exitDx=0;exitDy=0;" edge="1" parent="1" source="nAtqvXI4FUErwkFiZ1A1-115">
          <mxGeometry relative="1" as="geometry">
            <mxPoint x="698.5294117647059" y="350" as="targetPoint" />
          </mxGeometry>
        </mxCell>
        <mxCell id="nAtqvXI4FUErwkFiZ1A1-121" value="不满足" style="edgeLabel;html=1;align=center;verticalAlign=middle;resizable=0;points=[];" vertex="1" connectable="0" parent="nAtqvXI4FUErwkFiZ1A1-120">
          <mxGeometry x="-0.0996" y="2" relative="1" as="geometry">
            <mxPoint as="offset" />
          </mxGeometry>
        </mxCell>
        <mxCell id="nAtqvXI4FUErwkFiZ1A1-115" value="读取Flash里的数据是否满足读取上次配置的条件" style="whiteSpace=wrap;html=1;rounded=1;" vertex="1" parent="1">
          <mxGeometry x="652.5" y="247.5" width="92.5" height="55" as="geometry" />
        </mxCell>
        <mxCell id="nAtqvXI4FUErwkFiZ1A1-117" value="从Flash读取AD9833需要输出频率" style="whiteSpace=wrap;html=1;rounded=1;" vertex="1" parent="1">
          <mxGeometry x="811.25" y="245" width="120" height="60" as="geometry" />
        </mxCell>
        <mxCell id="nAtqvXI4FUErwkFiZ1A1-122" value="输出610KHz的三角波" style="whiteSpace=wrap;html=1;rounded=1;" vertex="1" parent="1">
          <mxGeometry x="660" y="350" width="77.5" height="40" as="geometry" />
        </mxCell>
        <mxCell id="nAtqvXI4FUErwkFiZ1A1-123" style="edgeStyle=orthogonalEdgeStyle;rounded=0;orthogonalLoop=1;jettySize=auto;html=1;exitX=0.5;exitY=1;exitDx=0;exitDy=0;entryX=0.291;entryY=0.037;entryDx=0;entryDy=0;entryPerimeter=0;" edge="1" parent="1" source="nAtqvXI4FUErwkFiZ1A1-117" target="WGRIqP3lwN1IFxU8m7C3-9">
          <mxGeometry relative="1" as="geometry" />
        </mxCell>
      </root>
    </mxGraphModel>
  </diagram>
</mxfile>
